<svg width="2469" height="204" viewBox="0 0 2469 204" fill="none" xmlns="http://www.w3.org/2000/svg">
<path d="M698.802 145.036C698.802 151.68 702.532 155.225 708.985 155.225L824.126 155.213V182.137H684.236C668.727 182.137 657.694 171.104 657.694 155.595V44.5251C657.694 28.924 668.727 17.9893 684.236 17.9893H824.126V44.8374L708.991 44.8316C702.636 44.8316 698.796 47.9831 698.796 55.0146V145.036H698.802V145.036ZM1093.99 109.601V145.036C1093.99 151.68 1097.72 155.225 1104.18 155.225L1233.21 155.213V182.137H1079.43C1063.93 182.137 1052.89 171.104 1052.89 155.595V44.5251C1052.89 28.924 1063.93 17.9893 1079.43 17.9893H1220.78V44.8374L1104.19 44.8316C1097.83 44.8316 1093.99 47.9831 1093.99 55.0146V82.7185H1221.35V109.607H1093.99V109.601V109.601ZM975.893 109.601V182.079H1017.01V17.9488H975.893V82.7127H884.009V17.9488H842.896V182.079H884.009V109.601H975.893ZM2283.39 17.8968V44.8316L2355.52 44.8432V182.079H2396.61V44.8432L2468.76 44.8316V17.8968H2283.39V17.8968ZM1910.99 182.067L1910.98 17.9199L1952.13 17.9084V155.15L2080.36 155.167V182.09L1910.99 182.067ZM1356.68 182.108C1372.14 182.108 1376.05 175.024 1380.09 166.495C1384.14 157.966 1446.62 17.9604 1446.62 17.9604H1403.76C1403.76 17.9604 1347.87 150.599 1347.13 152.183C1346.07 154.496 1344.68 154.786 1340.77 154.786C1336.87 154.786 1335.48 154.496 1334.41 152.183C1333.68 150.599 1277.79 17.9604 1277.79 17.9604H1234.93C1234.93 17.9604 1297.4 157.966 1301.45 166.495C1305.5 175.03 1309.4 182.108 1324.87 182.108H1356.68ZM1848.42 17.9431H1713.08C1697.58 17.9431 1686.54 28.8835 1686.54 44.4789V155.56C1686.54 171.063 1697.58 182.096 1713.08 182.096H1848.42C1863.93 182.096 1874.96 171.063 1874.96 155.56V44.4789C1874.96 28.8835 1863.93 17.9431 1848.42 17.9431V17.9431ZM1833.85 144.996C1833.85 151.64 1830.12 155.179 1823.67 155.179H1737.83C1731.39 155.179 1727.66 151.646 1727.66 144.996V54.9683C1727.66 47.9368 1731.48 44.7854 1737.85 44.7854H1823.66C1830.02 44.7854 1833.85 47.9368 1833.85 54.9683V144.996ZM2134.84 109.601V145.036C2134.84 151.68 2138.57 155.225 2145.02 155.225L2274.05 155.213V182.137H2120.27C2104.76 182.137 2093.73 171.104 2093.73 155.595V44.5251C2093.73 28.924 2104.76 17.9893 2120.27 17.9893H2261.62V44.8374L2145.03 44.8316C2138.67 44.8316 2134.84 47.9831 2134.84 55.0146V82.7185H2262.19V109.607H2134.84V109.601V109.601ZM1608.78 76.1438C1608.78 82.7936 1605.05 86.3325 1598.6 86.3325H1533.9C1527.81 86.3325 1522.36 91.3691 1522.36 97.6778C1522.36 101.309 1523.85 104.628 1525.8 106.432C1528.61 109.035 1617.17 182.235 1617.17 182.235L1679.42 182.171L1589.19 113.175L1623.35 113.163C1638.85 113.163 1649.89 102.136 1649.89 86.6332V44.583C1649.89 28.9818 1638.85 18.0471 1623.35 18.0471H1463.96V182.171H1505.01V44.8663L1598.6 44.8837C1604.95 44.8837 1608.79 48.0409 1608.79 55.0724V76.1438H1608.78V76.1438ZM548.833 40.9689L389.034 40.9805C384.94 40.9805 382.28 39.7719 382.28 34.1629L382.269 10.4605C382.269 3.61984 378.591 0 371.906 0L188.989 0.011565C182.148 0.011565 178.633 3.8627 178.633 10.3969L178.621 34.0993C178.621 39.1012 176.262 40.9227 171.867 40.9227L67.1462 40.9458C59.1433 40.9458 54.4479 44.7738 52.0366 49.7872L1.04085 149.471C0.393209 150.715 0 152.195 0 153.698C0 157.654 2.58477 162.742 9.72036 162.742L171.861 162.719C176.863 162.719 178.615 165.003 178.615 169.542L178.604 193.251C178.604 200.386 182.755 203.636 188.983 203.636L278.756 203.63L371.912 203.624C378.14 203.624 382.292 200.606 382.292 193.314L382.28 169.612C382.28 164.755 384.333 162.777 389.034 162.777L490.708 162.748C497.716 162.748 502.758 160.909 506.274 154.375L556.692 55.8819C557.79 53.754 558.565 52.5397 558.565 50.0069C558.559 43.3224 552.783 40.9689 548.833 40.9689V40.9689ZM508.558 80.6657L484.26 128.203C482.739 130.956 480.027 131.083 478.125 131.083L357.485 131.089C352.483 131.089 350.65 133.361 350.65 137.907L350.638 165.246C350.638 169.791 348.643 171.971 343.792 171.971H278.751L217.086 171.977C212.842 171.977 210.251 170.485 210.251 165.177L210.24 137.837C210.24 132.835 207.95 131.054 203.41 131.054H55.5119C51.8805 131.054 49.3651 128.764 49.3651 125.584C49.3651 124.665 49.5964 123.797 50.0012 123.034L74.2992 75.4961C75.2359 73.8076 76.7567 72.6512 80.4286 72.6512L203.416 72.6569C207.655 72.6569 210.292 70.9511 210.292 65.7931L210.28 38.4535C210.28 33.6078 212.396 31.6591 217.092 31.6591L343.809 31.6475C348.354 31.6475 350.621 33.6656 350.621 38.5171L350.609 65.8625C350.609 70.5579 352.795 72.6338 357.491 72.6338H503.042C507.673 72.6338 509.188 75.6927 509.188 78.104C509.195 78.9971 508.979 79.8778 508.558 80.6657V80.6657Z" fill="black"/>
</svg>
