<svg width="2280" height="361" viewBox="0 0 2280 361" fill="none" xmlns="http://www.w3.org/2000/svg">
<path fill-rule="evenodd" clip-rule="evenodd" d="M187.491 353.836C80.5941 332.968 0 263.074 0 180.093C0 160.081 4.57832 140.834 13.0087 122.831C140.216 143.907 190.487 264.902 187.491 353.836ZM252.158 360.204C254.389 360.204 256.62 360.178 258.838 360.152C253.455 223.814 272.261 60.7971 283.026 1.34372C262.482 -0.447908 241.821 -0.447908 221.277 1.34372C232.042 60.7971 250.848 223.814 245.466 360.152C247.684 360.178 249.914 360.204 252.158 360.204ZM270.925 359.841C275.854 359.608 277.06 359.283 281.911 358.881C276.476 187.771 343.31 79.5644 381.117 25.3118C364.951 18.4637 348.228 13.0137 331.131 9.02176C297.721 67.5024 272.261 209.599 270.925 359.841ZM293.441 357.584C295.373 357.714 300.406 357.377 304.31 356.339C304.193 171.974 417.03 110.393 464.551 83.0273C453.226 70.5227 440.437 59.4272 426.459 49.9803C303.09 154.646 290.834 256.264 293.441 357.584V357.584ZM316.812 353.836C423.709 332.968 504.29 263.074 504.29 180.093C504.29 160.081 499.725 140.834 491.282 122.831C364.087 143.907 313.816 264.902 316.812 353.836V353.836ZM233.378 359.841C228.449 359.608 227.243 359.283 222.393 358.881C227.827 187.771 160.994 79.5644 123.187 25.3118C139.351 18.4599 156.075 13.0098 173.172 9.02176C206.569 67.5024 232.042 209.599 233.378 359.841V359.841ZM210.862 357.584C208.917 357.714 203.898 357.377 199.981 356.339C200.098 171.974 87.2735 110.393 39.7394 83.0273C51.0674 70.5258 63.8564 59.4306 77.8316 49.9803C201.213 154.646 213.469 256.264 210.862 357.584ZM817.847 273.942L915.704 72.859H1025.64L1124.83 273.942H950.554L929.102 232.374H1030.98L972.006 113.078L891.568 273.942H817.847V273.942ZM576.558 279.286L746.125 279.389C801.882 279.389 847.081 234.501 847.081 178.77C847.081 123.013 801.882 78.1506 746.125 78.1506L576.558 78.2285V279.286ZM648.942 237.549V119.667H713.96C746.41 119.667 772.739 146.307 772.739 178.783C772.739 211.233 746.423 237.886 713.96 237.886H648.942V237.549V237.549ZM1658.34 72.859L1604.74 200.196L1564.5 114.414L1583.27 71.5101H1484.08L1504.19 113.078L1462.63 200.196L1409 72.859H1132.87V273.942H1351.37V232.374H1209.29V196.201H1333.94V151.949H1210.6V117.099H1363.42L1427.76 273.942H1486.76L1533.67 177.434L1580.59 275.291H1639.59L1724.02 72.872H1658.34V72.859V72.859ZM2131.57 53.7416C2060.23 53.7416 2000.7 93.2475 1986.8 145.801C1972.87 93.2475 1913.34 53.7416 1842 53.7416C1760.33 53.7416 1694.15 105.517 1694.15 169.393C1694.15 233.243 1760.35 285.031 1842 285.031C1913.34 285.031 1972.87 245.538 1986.8 192.972C2000.7 245.538 2060.23 285.031 2131.57 285.031C2213.24 285.031 2279.42 233.256 2279.42 169.393C2279.42 105.517 2213.23 53.7416 2131.57 53.7416ZM2131.57 245.214C2093.88 245.214 2063.32 211.246 2063.32 169.38C2063.32 127.501 2093.86 93.5458 2131.57 93.5458C2169.27 93.5458 2199.81 127.501 2199.81 169.38C2199.8 211.246 2169.26 245.214 2131.57 245.214ZM1841.99 245.214C1804.3 245.214 1773.74 211.246 1773.74 169.38C1773.74 127.501 1804.29 93.5458 1841.99 93.5458C1879.69 93.5458 1910.24 127.501 1910.24 169.38C1910.24 211.246 1879.69 245.214 1841.99 245.214Z" fill="black"/>
</svg>
