<svg width="480" height="67" viewBox="0 0 480 67" fill="none" xmlns="http://www.w3.org/2000/svg">
<path fill-rule="evenodd" clip-rule="evenodd" d="M184.362 9.32901V27.386H163.893V9.32901H152.61V56.705H163.893V37.655H184.362V56.705H195.645V9.32901H184.362Z" fill="black"/>
<path fill-rule="evenodd" clip-rule="evenodd" d="M236.98 9.32901L225.179 28.091L213.394 9.32901H200.083L219.559 40.295V56.705H230.827V40.295L250.305 9.32901H236.981H236.98Z" fill="black"/>
<path fill-rule="evenodd" clip-rule="evenodd" d="M286.574 9.32901V44.057C286.574 45.39 285.581 46.435 284.178 46.435H266.103V9.32901H254.822V56.705H288.152C291.118 56.705 293.501 55.843 295.244 54.092C296.971 52.367 297.841 49.989 297.841 47.037V9.33H286.573L286.574 9.32901Z" fill="black"/>
<path fill-rule="evenodd" clip-rule="evenodd" d="M341.625 9.32901H308.295V56.705H319.565V19.599H337.666C339.122 19.599 340.047 20.723 340.047 21.951V56.706H351.317V19.025C351.317 16.046 350.431 13.668 348.717 11.943C346.961 10.192 344.593 9.33 341.625 9.33" fill="black"/>
<path fill-rule="evenodd" clip-rule="evenodd" d="M395.1 9.32901H361.77V56.705H395.1C398.066 56.705 400.436 55.843 402.163 54.092C403.906 52.367 404.776 49.989 404.776 47.037V19.024C404.776 16.045 403.906 13.667 402.163 11.942C400.436 10.191 398.053 9.32901 395.1 9.32901ZM393.509 22.029V43.979C393.509 45.259 392.584 46.435 391.113 46.435H373.025V19.598H391.032C392.514 19.598 393.509 20.617 393.509 22.028" fill="black"/>
<path fill-rule="evenodd" clip-rule="evenodd" d="M424.43 9.32901C421.477 9.32901 419.081 10.191 417.354 11.942C415.611 13.667 414.754 16.071 414.754 19.024V56.705H425.996V42.045H446.48V56.705H457.748V9.32901H424.431H424.43ZM446.48 19.599V31.802H425.996V22.003C425.996 20.827 426.908 19.599 428.405 19.599H446.48Z" fill="black"/>
<path fill-rule="evenodd" clip-rule="evenodd" d="M468.717 9.32901H480V56.718H468.717V9.32901Z" fill="black"/>
<path fill-rule="evenodd" clip-rule="evenodd" d="M64.458 66.034C100.062 66.034 128.929 51.244 128.929 33.03C128.929 14.79 100.062 0 64.458 0C28.867 0 0 14.79 0 33.03C0 51.244 28.867 66.034 64.458 66.034ZM76.599 49.833C75.522 52.315 73.672 57.646 69.426 59.763C68.133 60.416 66.541 60.704 65.125 60.756H64.472C52.577 60.756 41.497 59.11 32.229 56.288C32.161 56.262 31.944 56.183 31.876 56.131C31.019 55.87 30.583 55.452 30.583 54.981C30.583 54.563 30.816 54.223 31.113 53.936L31.698 53.413C33.849 51.636 40.287 46.959 52.428 42.307C56.687 40.687 62.021 38.649 67.602 37.473C70.868 36.794 83.009 34.938 76.599 49.833V49.833ZM109.166 16.542C109.399 16.15 109.696 15.81 110.256 15.784C110.554 15.758 110.964 15.836 111.589 16.228C119.157 20.879 123.649 26.707 123.649 33.004C123.649 44.371 109.018 54.17 88.084 58.456C86.751 58.717 85.852 58.691 85.554 58.378C85.334 58.169 85.282 57.803 85.554 57.333C85.674 57.124 85.826 56.915 86.111 56.575C97.504 43.144 106.185 23.31 108.649 17.587C108.84 17.195 109.017 16.803 109.166 16.542ZM52.521 16.124C53.598 13.642 55.448 8.311 59.694 6.22C60.987 5.567 62.579 5.25301 63.995 5.22701C64.322 5.20101 64.552 5.22701 64.635 5.22701C76.543 5.22701 87.607 6.87301 96.889 9.69501L97.244 9.826C98.101 10.113 98.535 10.505 98.535 11.002C98.535 11.42 98.305 11.734 98.007 12.047C97.869 12.178 97.678 12.334 97.419 12.543C95.284 14.346 88.832 18.997 76.692 23.649C72.42 25.295 67.097 27.307 61.531 28.483C58.252 29.189 46.111 31.044 52.521 16.123V16.124ZM40.83 7.578C42.178 7.317 43.062 7.31701 43.388 7.65601C43.579 7.86501 43.634 8.231 43.38 8.675C43.242 8.91 43.093 9.11901 42.821 9.43301C31.43 22.891 22.747 42.672 20.27 48.421C20.092 48.813 19.902 49.205 19.753 49.466C19.533 49.858 19.223 50.198 18.676 50.224C18.378 50.25 17.955 50.172 17.33 49.78C9.762 45.129 5.27 39.301 5.27 33.004C5.27 21.637 19.901 11.838 40.832 7.578" fill="black"/>
</svg>
