<svg width="350" height="176" viewBox="0 0 350 176" fill="none" xmlns="http://www.w3.org/2000/svg">
<path fill-rule="evenodd" clip-rule="evenodd" d="M165.346 175.413C153.739 175.107 140.94 174.085 129.61 172.561C81.373 166.072 40.952 149.53 18.449 127.073C8.906 117.55 2.86 107.086 0.820999 96.5702C0.156999 93.1452 0 91.4662 0 87.7712C0 84.0762 0.156999 82.3972 0.820999 78.9722C2.162 72.0582 5.345 64.9302 10.043 58.3242C20.666 43.3842 39.307 30.0832 63.767 19.9912C104.532 3.17117 157.91 -3.49283 209.889 1.75117C270.906 7.90617 321.102 30.1732 341.02 59.9192C350.126 73.5182 352.357 88.2892 347.485 102.725C344.671 111.061 339.205 119.392 331.51 127.072C310.189 148.35 272.668 164.396 227.63 171.495C207.487 174.669 186.722 175.975 165.347 175.412L165.346 175.413ZM191.957 164.185C216.38 162.674 237.003 159.083 257.101 152.846C273.047 147.896 287.911 141.045 299.323 133.383C305.073 129.523 309.063 126.264 313.574 121.742C318.932 116.372 322.39 111.661 325.205 105.893C328.355 99.4402 329.574 94.3832 329.574 87.7712C329.574 81.1202 328.275 75.7932 325.086 69.3632C322.327 63.8022 318.808 59.0452 313.575 53.7992C305.89 46.0962 296.759 39.7442 284.692 33.7032C262.102 22.3952 233.839 14.9972 202.354 12.1502C184.914 10.5742 165.101 10.5722 147.606 12.1482C103.34 16.1342 65.341 29.2742 41.83 48.7262C38.848 51.1932 33.531 56.5602 31.303 59.3542C23.336 69.3422 19.574 80.1192 20.431 90.5032C21.365 101.817 26.46 111.794 36.384 121.742C43.903 129.278 52.842 135.542 64.466 141.421C90.937 154.806 123.464 162.477 161.721 164.357C166.042 164.569 187.745 164.446 191.957 164.185V164.185ZM67.867 132.136C67.657 132.048 67.315 131.786 67.104 131.553C66.726 131.132 66.722 130.826 66.674 90.2882L66.625 49.4462L66.12 48.9192C65.642 48.4202 65.51 48.3892 63.689 48.3382L61.763 48.2832V43.1332L75.624 43.0842L89.485 43.0362L90.074 43.5312L90.662 44.0262V58.7512C90.662 74.9292 90.619 74.3232 91.781 74.3232C92.503 74.3232 92.754 74.0222 96.775 68.3152C107.428 53.1942 113.288 44.9702 113.816 44.3982C115.118 42.9912 114.528 43.0482 128.012 43.0432L140.086 43.0392L140.546 43.4992C141.112 44.0652 141.325 44.8382 141.068 45.3902C140.904 45.7402 135.68 53.4972 117.438 80.4782C115.446 83.4232 114.89 84.3842 114.895 84.8662C114.9 85.3662 116.196 87.3102 121.726 95.1162C146.17 129.614 146.248 129.727 146.324 130.424C146.381 130.948 146.286 131.238 145.92 131.664L145.443 132.218L132.833 132.27C120.399 132.32 120.21 132.316 119.295 131.922C118.785 131.702 118.154 131.293 117.894 131.012C117.634 130.731 111.886 122.732 105.121 113.237C98.356 103.742 92.684 95.8602 92.517 95.7222C92.046 95.3322 91.186 95.5182 90.909 96.0692C90.721 96.4422 90.668 100.329 90.666 113.847L90.663 131.147L90.203 131.683L89.743 132.218L78.996 132.257C73.085 132.277 68.077 132.223 67.867 132.135V132.136ZM163.624 132.05C163.306 131.91 162.942 131.565 162.813 131.283C162.631 130.883 162.579 121.807 162.579 90.1322V49.4952L162.021 48.9372C161.482 48.3982 161.402 48.3792 159.636 48.3792H157.809V43.0372H186.036L186.66 43.5942L187.283 44.1512V131.16L186.754 131.689L186.226 132.217L175.214 132.26C166.393 132.295 164.087 132.252 163.625 132.049L163.624 132.05ZM204.642 132.084C204.05 131.743 203.796 131.319 203.79 130.654C203.787 130.318 206.494 121.948 209.808 112.055C213.121 102.161 218.391 86.4272 221.517 77.0882C224.644 67.7512 227.942 57.9292 228.846 55.2632C229.751 52.5962 230.491 50.1802 230.491 49.8952C230.491 49.6092 230.326 49.1732 230.126 48.9252C229.8 48.5212 229.567 48.4652 227.885 48.3792L226.008 48.2842L225.955 45.6612L225.903 43.0372L242.838 43.0392C253.955 43.0392 260.019 43.1082 260.486 43.2382C260.878 43.3472 261.294 43.6132 261.409 43.8292C261.648 44.2742 263.547 49.8902 272.498 76.6112C287.061 120.084 290.39 130.118 290.39 130.528C290.39 131.2 290.013 131.869 289.502 132.101C289.179 132.249 285.792 132.313 278.411 132.313C268.671 132.313 267.73 132.285 267.131 131.98C266.77 131.797 266.319 131.431 266.126 131.167C265.933 130.904 264.453 126.569 262.838 121.534C247.439 73.5432 247.865 74.8522 247.519 74.4662C247.136 74.0392 246.845 74.0442 246.45 74.4812C246.136 74.8292 245.542 76.6532 237.17 103.033C234.74 110.692 232.12 118.933 231.347 121.346C230.576 123.759 229.585 126.871 229.148 128.261C228.287 130.994 227.908 131.646 226.936 132.051C226.097 132.401 205.25 132.433 204.643 132.083L204.642 132.084Z" fill="black"/>
</svg>
