<svg width="2332" height="2435" viewBox="0 0 2332 2435" fill="none" xmlns="http://www.w3.org/2000/svg">
<path d="M255.844 2014.31V1796.61L163.211 1952.53L69.1072 1796.61V2014.31H0V1705.41H89.6923L163.211 1831.91L233.788 1705.41H324.951V2014.31H255.844ZM383.765 1705.41H452.873V2014.31H383.765V1705.41ZM483.75 1705.41H720.479V1770.13H636.668V2014.31H566.091V1770.13H483.75V1705.41ZM745.475 2011.37V1946.65C760.179 1949.59 793.997 1955.47 836.638 1955.47C871.927 1955.47 889.571 1951.06 889.571 1930.47C889.571 1908.4 874.867 1905.46 824.875 1881.93C776.353 1859.86 739.594 1840.74 739.594 1787.79C739.594 1723.06 779.294 1701 855.753 1701C895.453 1701 923.39 1703.94 942.504 1706.88V1771.61C924.86 1770.13 893.982 1765.72 858.694 1765.72C817.523 1765.72 808.701 1770.13 808.701 1787.79C808.701 1805.44 830.757 1814.26 864.575 1828.97C916.038 1852.51 957.208 1871.63 957.208 1930.47C957.208 1992.25 918.979 2020.19 836.638 2020.19C804.29 2018.72 774.883 2015.78 745.475 2011.37ZM999.849 1909.87V1705.41H1068.96V1906.93C1068.96 1942.23 1089.54 1954 1123.36 1954C1155.71 1954 1177.76 1942.23 1177.76 1906.93V1705.41H1246.87V1909.87C1246.87 1984.89 1198.35 2018.72 1123.36 2018.72C1048.37 2018.72 999.849 1984.89 999.849 1909.87ZM1305.68 1705.41H1440.96C1504.18 1705.41 1539.47 1728.95 1539.47 1784.84C1539.47 1828.97 1514.48 1843.68 1490.95 1852.51C1518.89 1861.33 1548.3 1876.04 1548.3 1927.53C1548.3 1981.95 1515.95 2014.31 1446.84 2014.31H1307.16V1705.41H1305.68ZM1430.67 1830.44C1458.6 1830.44 1468.9 1815.73 1468.9 1795.14C1468.9 1770.13 1457.13 1764.25 1430.67 1764.25H1374.79V1830.44H1430.67ZM1435.08 1956.94C1463.01 1956.94 1474.78 1946.65 1474.78 1920.17C1474.78 1896.64 1464.48 1886.34 1438.02 1886.34H1374.79V1956.94H1435.08ZM1587.99 1705.41H1657.1V2014.31H1587.99V1705.41ZM1707.09 2011.37V1946.65C1721.8 1949.59 1755.62 1955.47 1798.26 1955.47C1833.55 1955.47 1851.19 1951.06 1851.19 1930.47C1851.19 1908.4 1836.49 1905.46 1786.49 1881.93C1737.97 1859.86 1701.21 1840.74 1701.21 1787.79C1701.21 1723.06 1740.91 1701 1817.37 1701C1857.07 1701 1885.01 1703.94 1904.12 1706.88V1771.61C1886.48 1770.13 1855.6 1765.72 1820.31 1765.72C1779.14 1765.72 1770.32 1770.13 1770.32 1787.79C1770.32 1805.44 1792.38 1814.26 1826.19 1828.97C1877.66 1852.51 1918.83 1871.63 1918.83 1930.47C1918.83 1992.25 1880.6 2020.19 1798.26 2020.19C1767.38 2018.72 1736.5 2015.78 1707.09 2011.37ZM2136.44 2014.31V1892.22H2026.16V2014.31H1957.06V1705.41H2026.16V1827.5H2136.44V1705.41H2205.55V2014.31H2136.44ZM2262.89 1705.41H2332V2014.31H2262.89V1705.41ZM579.324 2430.59V2212.89L486.691 2368.81L394.058 2212.89V2430.59H323.48V2121.69H413.173L486.691 2246.72L558.739 2121.69H649.902V2430.59H579.324ZM696.953 2276.14C696.953 2165.82 739.594 2117.28 830.757 2117.28C921.919 2117.28 964.56 2165.82 964.56 2276.14C964.56 2386.46 921.919 2435 830.757 2435C739.594 2435 696.953 2386.46 696.953 2276.14ZM891.042 2276.14C891.042 2212.89 880.749 2180.53 829.286 2180.53C779.294 2180.53 767.531 2212.89 767.531 2276.14C767.531 2339.39 777.823 2371.75 829.286 2371.75C880.749 2371.75 891.042 2339.39 891.042 2276.14ZM974.852 2121.69H1211.58V2186.41H1127.77V2430.59H1058.66V2186.41H974.852V2121.69ZM1223.34 2276.14C1223.34 2165.82 1265.98 2117.28 1357.15 2117.28C1448.31 2117.28 1490.95 2165.82 1490.95 2276.14C1490.95 2386.46 1448.31 2435 1357.15 2435C1265.98 2435 1223.34 2386.46 1223.34 2276.14ZM1417.43 2276.14C1417.43 2212.89 1407.14 2180.53 1355.68 2180.53C1304.21 2180.53 1293.92 2212.89 1293.92 2276.14C1293.92 2339.39 1304.21 2371.75 1355.68 2371.75C1407.14 2371.75 1417.43 2339.39 1417.43 2276.14ZM1536.53 2121.69H1661.51C1727.68 2121.69 1770.32 2146.7 1770.32 2220.24C1770.32 2268.78 1746.79 2299.67 1707.09 2308.5L1783.55 2430.59H1702.68L1637.99 2320.27H1607.11V2430.59H1538V2121.69H1536.53ZM1658.57 2259.96C1689.45 2259.96 1699.74 2243.78 1699.74 2220.24C1699.74 2196.71 1689.45 2180.53 1658.57 2180.53H1607.11V2259.96H1658.57ZM1811.49 2426.17V2361.45C1826.19 2364.39 1860.01 2370.28 1902.65 2370.28C1937.94 2370.28 1955.59 2365.87 1955.59 2345.27C1955.59 2323.21 1940.88 2320.27 1890.89 2296.73C1842.37 2274.67 1805.61 2255.55 1805.61 2202.59C1805.61 2137.87 1845.31 2115.81 1921.77 2115.81C1961.47 2115.81 1989.4 2118.75 2008.52 2121.69V2186.41C1990.88 2184.94 1960 2180.53 1924.71 2180.53C1883.54 2180.53 1874.72 2184.94 1874.72 2201.12C1874.72 2218.77 1896.77 2227.6 1930.59 2242.31C1982.05 2265.84 2023.22 2284.96 2023.22 2343.8C2023.22 2405.58 1984.99 2433.53 1902.65 2433.53C1871.78 2435 1840.9 2432.06 1811.49 2426.17Z" fill="black"/>
<path d="M1461.82 511.843L1164.76 0L869.177 511.843L1164.76 1025.16L1461.82 511.843ZM1461.82 1537H2053L1757.41 1025.16H1164.76L1461.82 1537ZM869.177 1537H278L573.588 1025.16H1164.76L869.177 1537Z" fill="black"/>
</svg>
