<svg width="500" height="72" viewBox="0 0 500 72" fill="none" xmlns="http://www.w3.org/2000/svg">
<path fill-rule="evenodd" clip-rule="evenodd" d="M101.257 0H118.702C119.655 0 120.425 0.772551 120.425 1.72305V68.7611C120.425 69.7116 119.655 70.4827 118.702 70.4827H101.257C100.305 70.4827 99.5343 69.7116 99.5343 68.7611V1.72305C99.5343 0.771104 100.305 0 101.257 0ZM1.72449 0.574352H27.9448C28.8982 0.574352 32.7089 0.973643 34.9383 4.41973L67.7108 55.1779V2.29739C67.7108 1.34545 68.4819 0.574352 69.4339 0.574352H84.3756C85.3275 0.574352 86.0986 1.34545 86.0986 2.29739V69.3355C86.0986 70.286 85.3261 71.0571 84.3756 71.0571L58.841 71.0831C57.8876 71.0831 52.7185 71.06 50.3864 66.8587L18.6193 17.4229V69.3355C18.6193 70.286 17.8482 71.0571 16.8948 71.0571H1.72449C0.772548 71.0571 0 70.286 0 69.3355V2.29739C0 1.34545 0.772548 0.574352 1.72449 0.574352ZM415.395 0.574352L441.844 0.562774C442.796 0.562774 446.61 0.973643 448.839 4.41973L481.61 55.1779V2.29739C481.61 1.34545 482.384 0.574352 483.335 0.574352H498.275C499.227 0.574352 499.999 1.34545 499.999 2.29739V69.3355C499.999 70.286 499.227 71.0571 498.275 71.0571L472.742 71.0455C471.787 71.0455 466.619 71.06 464.286 66.8573L432.52 17.4214V69.334C432.52 70.2845 431.746 71.0556 430.796 71.0556H415.394C414.443 71.0556 413.669 70.2845 413.669 69.334V2.29594C413.669 1.34545 414.443 0.574352 415.395 0.574352ZM341.511 42.3079H370.12L358.442 16.3523H353.183L341.511 42.3079ZM376.583 56.6752H335.049L329.407 69.2212C328.977 70.1731 327.859 70.9428 326.908 70.9428H309.464C308.51 70.9428 308.086 70.1731 308.516 69.2212L338.668 2.18166C339.098 1.22972 340.216 0.460058 341.17 0.460058H370.463C371.418 0.460058 372.535 1.23116 372.964 2.18166L403.117 69.2212C403.547 70.1731 403.123 70.9428 402.169 70.9428H384.728C383.776 70.9428 382.656 70.1731 382.226 69.2212L376.583 56.6752ZM209.256 16.0875H157.5C156.23 16.0875 155.201 17.1147 155.201 18.3849V22.3648C155.201 23.6119 156.197 24.629 157.438 24.6608C157.438 24.6724 200.161 28.6812 200.378 28.8447C207.956 30.3941 213.655 37.5597 213.655 45.5963V53.2755C213.655 62.9598 208.699 71.0614 191.923 71.0614H136.494C135.685 71.0614 135.031 70.409 135.031 69.6046V56.7592C135.031 55.9562 135.685 55.3052 136.494 55.3052H190.983C192.224 55.2748 193.221 54.252 193.221 53.0035V47.5927C193.221 46.3196 192.192 45.2939 190.922 45.2939L151.301 41.9057C151.197 41.897 151.098 41.8767 151 41.8493C142.121 41.502 135.031 35.1162 135.031 26.1524V18.3574C135.031 8.67309 142.771 0.792798 152.402 0.57145L209.256 0.572895C210.065 0.572895 210.719 1.22537 210.719 2.0283V14.6336C210.719 15.4379 210.065 16.0875 209.256 16.0875ZM298.861 16.0875H247.103C245.835 16.0875 244.804 17.1147 244.804 18.3849V22.3648C244.804 23.6119 245.801 24.629 247.042 24.6608C247.042 24.6724 289.764 28.6812 289.985 28.8447C297.56 30.3941 303.26 37.5597 303.26 45.5963V53.2755C303.26 62.9598 298.302 71.0614 281.529 71.0614H226.096C225.29 71.0614 224.635 70.409 224.635 69.6046V56.7592C224.635 55.9562 225.29 55.3052 226.096 55.3052H280.588C281.828 55.2748 282.825 54.252 282.825 53.0035V47.5927C282.825 46.3196 281.795 45.2939 280.526 45.2939L240.903 41.9057C240.801 41.897 240.699 41.8767 240.604 41.8493C231.727 41.502 224.635 35.1162 224.635 26.1524V18.3574C224.635 8.67309 232.374 0.792798 242.006 0.57145L298.861 0.572895C299.668 0.572895 300.322 1.22537 300.322 2.0283V14.6336C300.322 15.4379 299.668 16.0875 298.861 16.0875Z" fill="black"/>
</svg>
