<svg width="997" height="366" viewBox="0 0 997 366" fill="none" xmlns="http://www.w3.org/2000/svg">
<path d="M996.504 142.109V157.036H965.399V222.722H944.428V157.036H913.336V142.109H996.504ZM922.298 207.782V222.722H855.66V142.109H876.613V207.782H922.298ZM518.637 207.782V222.722H448.631V142.109H517.32V157.042H469.602V174.754H513.206V189.208H469.602V207.776H518.637V207.782ZM411.07 192.776C415.459 190.359 419.121 186.811 421.674 182.5C424.228 178.189 425.58 173.272 425.591 168.262C425.591 159.882 423.145 153.371 418.018 149.093C412.059 144.153 403.891 142.103 390.105 142.103H342.022L341.167 146.963C341.167 146.963 342.022 148.413 343.017 150.155C344.51 152.722 344.383 153.474 344.383 155.191V222.71H365.36V196.897H391.416L405.402 222.71H428.491L411.07 192.776ZM400.463 179.694C398.849 181.271 396.937 182.03 393.964 182.03H365.36V157.461H387.957C394.68 157.461 398.272 158.219 400.694 160.185C403.066 162.084 404.213 164.979 404.213 169.251C404.213 173.662 403.036 177.212 400.463 179.694V179.694ZM606.435 142.096V195.568C601.544 189.409 596.411 183.474 587.733 173.935C580.67 166.18 565.949 150.276 558.389 142.109H538.146L537.302 146.969C537.302 146.969 538.17 148.419 539.153 150.161C540.276 152.078 540.5 152.988 540.537 154.026L540.524 222.716L559.366 222.655V169.257C563.128 174.269 569.827 181.969 574.287 186.818C583.182 196.435 596.617 211.435 607.072 222.716H625.179V142.109L606.435 142.096ZM811.74 142.109V191.399C811.74 196.897 810.641 200.167 807.959 202.679C804.567 205.835 798.96 207.346 790.866 207.346C782.65 207.346 776.897 205.835 773.517 202.679C770.841 200.167 769.743 196.884 769.743 191.399V142.109H746.405L745.556 146.969C745.556 146.969 746.424 148.419 747.401 150.161C748.463 152.005 748.711 152.91 748.76 153.911L748.778 192.157C748.778 213.232 763.056 223.96 790.587 223.96H791.169C818.73 223.96 832.256 213.529 832.256 192.157V142.103H811.74V142.109ZM702.103 142.109H675.901C663.238 168.495 651.658 195.389 641.193 222.722H662.236C663.911 218.134 665.695 213.45 667.485 208.759H710.519C712.328 213.45 714.099 218.134 715.768 222.722H736.824C726.347 195.391 714.764 168.498 702.103 142.109V142.109ZM673.505 193.571C678.464 181.221 683.628 168.954 688.996 156.775C694.374 168.951 699.542 181.218 704.5 193.571H673.505Z" fill="black"/>
<path d="M282.453 175.171C276.252 162.052 261.701 133.654 246.955 106.851C226.172 69.072 193.642 15.2732 190.292 10.6615C189.388 9.42361 188.654 8.58623 187.908 8.04011C187.524 7.75168 187.092 7.53201 186.633 7.39083C185.802 7.13597 183.957 7.28767 182.598 7.43331C181.87 7.51219 180.954 7.49399 180.25 7.46365C168.707 7.06217 157.158 6.86797 145.608 6.88112C128.714 6.88112 108.362 7.3969 105.723 7.65782C104.885 7.69951 104.066 7.91876 103.32 8.30103C102.646 8.67725 101.96 9.04739 100.868 10.6675C97.6947 15.3945 65.0428 69.0781 44.2599 106.857C29.5147 133.654 14.9697 162.058 8.76215 175.177C7.11772 178.654 6.875 180.948 6.875 182.016C6.875 183.903 7.51214 186.196 8.76215 188.848C14.9636 201.967 29.5147 230.365 44.2599 257.168C65.0428 294.947 97.5733 348.746 100.923 353.358C101.445 354.074 101.906 354.656 102.349 355.123C102.942 355.82 103.714 356.342 104.582 356.634C105.413 356.889 107.052 356.737 108.405 356.592C109.186 356.53 109.97 356.52 110.753 356.562C119.127 356.847 131.985 357.15 145.602 357.144C162.495 357.138 182.228 356.701 185.201 356.361L185.675 356.307C186.803 356.179 187.446 356.009 187.786 355.839C188.466 355.554 189.042 355.008 190.432 353.091C193.781 348.485 226.16 294.947 246.943 257.168C261.688 230.371 276.233 201.967 282.441 188.848C284.085 185.371 284.328 182.647 284.328 181.579C284.34 179.686 283.703 177.823 282.453 175.171V175.171ZM186.518 189.097C172.61 220.28 162.731 239.722 148.083 267.884C147.24 269.51 146.548 270.566 145.589 270.584C144.619 270.584 143.951 269.516 143.102 267.878C128.453 239.716 118.575 220.274 104.667 189.091C103.478 186.427 102.64 184.455 102.64 181.949C102.677 179.516 103.514 177.525 104.679 174.91C118.587 143.727 128.466 124.285 143.114 96.1231C143.957 94.4969 144.631 93.4411 145.589 93.4229H145.595H145.589H145.614C146.585 93.4229 147.264 94.4848 148.114 96.1231C162.762 124.285 172.641 143.727 186.548 174.91C187.738 177.574 188.551 179.54 188.551 182.046C188.557 184.57 187.683 186.488 186.518 189.097V189.097Z" fill="url(#paint0_linear)"/>
<path d="M282.453 175.171C276.252 162.052 261.701 133.654 246.955 106.851C226.172 69.072 193.642 15.2732 190.292 10.6615C189.388 9.42361 188.654 8.58623 187.908 8.04011C187.524 7.75168 187.092 7.53201 186.633 7.39083C185.802 7.13597 183.957 7.28767 182.598 7.43331C181.87 7.51219 180.954 7.49399 180.25 7.46365C168.707 7.06217 157.158 6.86797 145.608 6.88112C128.714 6.88112 108.362 7.3969 105.723 7.65782C104.885 7.69951 104.066 7.91876 103.32 8.30103C102.646 8.67725 101.96 9.04739 100.868 10.6675C97.6947 15.3945 65.0428 69.0781 44.2599 106.857C29.5147 133.654 14.9697 162.058 8.76215 175.177C7.11772 178.654 6.875 180.948 6.875 182.016C6.875 183.903 7.51214 186.196 8.76215 188.848C14.9636 201.967 29.5147 230.365 44.2599 257.168C65.0428 294.947 97.5733 348.746 100.923 353.358C101.445 354.074 101.906 354.656 102.349 355.123C102.942 355.82 103.714 356.342 104.582 356.634C105.413 356.889 107.052 356.737 108.405 356.592C109.186 356.53 109.97 356.52 110.753 356.562C119.127 356.847 131.985 357.15 145.602 357.144C162.495 357.138 182.228 356.701 185.201 356.361L185.675 356.307C186.803 356.179 187.446 356.009 187.786 355.839C188.466 355.554 189.042 355.008 190.432 353.091C193.781 348.485 226.16 294.947 246.943 257.168C261.688 230.371 276.233 201.967 282.441 188.848C284.085 185.371 284.328 182.647 284.328 181.579C284.34 179.686 283.703 177.823 282.453 175.171V175.171ZM186.518 189.097C172.61 220.28 162.731 239.722 148.083 267.884C147.24 269.51 146.548 270.566 145.589 270.584C144.619 270.584 143.951 269.516 143.102 267.878C128.453 239.716 118.575 220.274 104.667 189.091C103.478 186.427 102.64 184.455 102.64 181.949C102.677 179.516 103.514 177.525 104.679 174.91C118.587 143.727 128.466 124.285 143.114 96.1231C143.957 94.4969 144.631 93.4411 145.589 93.4229H145.595H145.589H145.614C146.585 93.4229 147.264 94.4848 148.114 96.1231C162.762 124.285 172.641 143.727 186.548 174.91C187.738 177.574 188.551 179.54 188.551 182.046C188.557 184.57 187.683 186.488 186.518 189.097V189.097Z" fill="#1E1E1E"/>
<path d="M94.0478 193.357C94.0478 193.357 89.958 185.711 89.8002 182.701C89.782 182.301 89.7638 182.167 89.8002 181.779C89.867 181.008 89.5697 181.288 88.8961 181.919C87.6946 183.041 85.5951 184.158 80.4495 184.158C75.8924 184.158 37.0936 184.109 18.6044 184.109C15.8981 184.109 12.2573 183.903 12.2573 188.193C12.2573 190.717 14.4418 195.796 18.9321 204.577C43.465 252.562 70.7164 300.493 99.9338 347.338C99.9338 347.338 104.394 354.523 104.849 355.093C105.31 355.664 105.85 355.912 106.942 355.9C106.942 355.9 125.468 321.968 140.438 284.971C124.11 254.879 108.64 224.328 94.0478 193.357V193.357Z" fill="#1E1E1E"/>
<path d="M280.906 182.447C280.238 183.132 278.369 184.133 274.188 184.133H223.248C199.892 184.133 202.258 183.508 196.19 195.863C193.49 201.36 190.699 207.829 187.859 213.138C167.464 255.778 117.701 341.659 110.977 352.302C108.447 356.307 108.077 356.519 109.922 356.519C109.922 356.519 126.809 357.138 145.608 357.138C174.958 357.138 185.462 356.325 185.462 356.325C202.489 329.838 243.084 262.659 272.071 204.473C278.745 191.075 282.095 185.238 281.761 182.374C281.701 181.828 281.191 182.155 280.906 182.447V182.447Z" fill="#1E1E1E"/>
<path d="M184.115 8.13721C182.853 8.07653 181.955 9.03528 180.232 11.7052C165.826 34.0111 116.105 127.689 95.7954 171.378C93.3076 176.73 92.0454 179.34 92.0454 181.937L102.64 181.955C102.64 181.937 102.634 181.973 102.64 181.955C102.677 179.522 103.514 177.531 104.679 174.916C118.587 143.733 128.466 124.291 143.114 96.1292C143.957 94.503 144.631 93.4472 145.589 93.429H145.595L149.71 81.4507C164.042 45.7102 184.115 8.13721 184.115 8.13721V8.13721Z" fill="url(#paint1_linear)"/>
<path d="M199.109 182.052C199.109 179.461 197.902 176.912 195.414 171.621C181.054 141.126 165.815 111.052 149.716 81.4386L145.595 93.4229H145.589H145.614C146.585 93.4229 147.264 94.4848 148.114 96.1231C162.762 124.285 172.64 143.727 186.548 174.91C187.738 177.574 188.551 179.54 188.551 182.046H199.109V182.052Z" fill="url(#paint2_linear)"/>
<path d="M145.589 270.59C145.589 270.59 145.595 270.59 145.589 270.59C144.618 270.59 143.951 269.522 143.101 267.884C128.453 239.722 118.575 220.28 104.667 189.097C103.477 186.433 102.64 184.461 102.64 181.955V181.961L92.0453 181.937C92.0331 184.546 93.2407 187.173 95.7467 192.495C110.09 222.968 125.313 253.02 141.396 282.611L145.589 270.59Z" fill="url(#paint3_linear)"/>
<path d="M145.589 270.59C145.589 270.59 145.595 270.59 145.589 270.59C144.618 270.59 143.951 269.522 143.101 267.884C128.453 239.722 118.575 220.28 104.667 189.097C103.477 186.433 102.64 184.461 102.64 181.955V181.937L92.0453 181.919C92.0331 184.54 93.2407 187.173 95.7467 192.495C110.09 222.968 125.313 253.02 141.396 282.611L145.589 270.59Z" fill="url(#paint4_linear)"/>
<path d="M106.948 355.9C108.114 355.955 109.509 354.535 111.123 352.077C111.548 351.398 112.118 350.463 112.822 349.304C123.672 330.821 175.984 234.273 195.323 192.665C197.811 187.313 199.109 184.643 199.109 182.052H188.557C188.557 182.046 188.557 182.046 188.557 182.052C188.557 184.57 187.689 186.488 186.524 189.103C172.616 220.286 162.738 239.728 148.09 267.89C147.246 269.516 146.554 270.572 145.596 270.59L141.403 282.605C126.275 320.512 106.948 355.9 106.948 355.9V355.9Z" fill="url(#paint5_linear)"/>
<path d="M102.355 355.117C101.844 354.558 101.368 353.968 100.929 353.352C97.5794 348.746 65.0489 294.941 44.266 257.162C29.5208 230.359 14.9758 201.961 8.76822 188.842C7.51822 186.19 6.88108 183.897 6.88108 182.01H0.036377C0.036377 184.334 0.54002 187.349 2.58494 191.791C7.41506 202.265 20.9346 228.952 38.2708 260.487C57.1969 294.911 91.56 352.162 95.3949 357.405C96.9726 359.559 98.3197 360.864 99.6061 361.677L102.355 355.117Z" fill="url(#paint6_linear)"/>
<path d="M99.6121 362.677C101.457 363.848 103.168 364 105.231 364.188C110.346 364.643 132.731 365.013 145.607 365.013C158.484 365.013 182.659 364.491 185.984 364.188C187.562 364.042 189.012 363.897 190.505 363.235L187.798 356.846C187.122 357.108 186.41 357.266 185.687 357.313L185.213 357.367C182.24 357.707 162.507 358.144 145.614 358.15C131.997 358.156 119.139 357.853 110.765 357.568C109.982 357.526 109.198 357.536 108.417 357.598C107.057 357.744 105.425 357.895 104.594 357.64C103.727 357.347 102.955 356.825 102.361 356.13L99.6121 362.677Z" fill="url(#paint7_linear)"/>
<path d="M291.179 182.004C291.179 180.11 290.766 176.676 288.63 172.222C283.454 161.433 266.907 128.848 252.944 103.526C234.261 69.6667 199.819 11.9844 195.82 6.6142C193.715 3.78651 192.131 2.45762 190.535 1.76587L187.907 8.04018C188.66 8.5863 189.388 9.42368 190.292 10.6616C193.642 15.2672 226.172 69.0721 246.955 106.851C261.7 133.654 276.245 162.052 282.453 175.171C283.703 177.823 284.34 179.686 284.34 181.573L291.179 182.004Z" fill="#818181"/>
<path d="M100.619 1.79613L103.326 8.29495C103.841 8.04616 104.357 7.79131 105.729 7.65174C108.362 7.38475 128.72 6.87504 145.614 6.87504C159.364 6.87504 173.314 7.1663 180.256 7.45757C180.96 7.48791 181.876 7.50611 182.604 7.42723C183.963 7.2816 185.808 7.1299 186.639 7.38475C187.097 7.52846 187.528 7.74793 187.914 8.03403L190.541 1.75972C189.012 1.06797 187.537 0.983015 185.814 0.825248C180.492 0.339808 157.604 0 145.62 0C135.067 0 110.565 0.27306 104.824 0.849519C103.047 1.03156 101.724 1.32889 100.619 1.79613V1.79613Z" fill="url(#paint8_linear)"/>
<path d="M100.619 1.79614C98.4593 2.71241 97.1668 4.28402 95.1704 6.88719C91.2141 12.0511 56.7903 70.14 38.2769 103.526C25.2428 127.034 4.53883 167.762 2.57887 172.228C0.618904 176.694 0.036377 179.679 0.036377 182.01L6.88108 182.016C6.88108 180.948 7.1238 178.648 8.76822 175.177C14.9697 162.058 29.5208 133.654 44.266 106.857C65.0489 69.0781 97.7068 15.3945 100.874 10.6676C101.967 9.04133 102.652 8.67725 103.326 8.30103L100.619 1.79614Z" fill="url(#paint9_linear)"/>
<path d="M190.505 362.229C192.167 361.495 193.86 360.117 195.82 357.399C199.534 352.247 236.561 290.427 252.944 260.481C269.328 230.541 286.731 196.039 288.63 191.785C290.997 186.488 291.179 183.897 291.179 182.004L284.334 181.573C284.334 182.641 284.091 185.371 282.447 188.842C276.245 201.961 261.694 230.366 246.949 257.162C226.166 294.941 193.787 348.479 190.438 353.085C189.042 355.002 188.472 355.554 187.792 355.833C187.786 355.833 187.804 355.821 187.792 355.833L190.505 362.229Z" fill="url(#paint10_linear)"/>
<path d="M182.598 7.43338L182.974 7.39697C182.968 7.40304 181.239 8.71979 176.803 8.70159C171.536 8.67732 160.608 8.45887 151.864 8.40426C135.711 8.3011 116.469 8.59843 107.476 9.02926C102.707 9.25984 102.422 9.77562 99.3755 13.022L99.3694 13.0159L100.874 10.6616C101.966 9.03533 102.652 8.67125 103.326 8.29503C103.842 8.04625 104.357 7.79139 105.729 7.65183C108.362 7.38483 128.72 6.87512 145.614 6.87512C159.364 6.87512 173.314 7.16639 180.256 7.45765C180.954 7.48799 181.87 7.50619 182.598 7.43338" fill="white"/>
<path d="M186.554 174.916C180.98 162.413 175.201 150.002 169.218 137.689C162.373 123.74 155.339 109.883 148.12 96.1232C147.24 94.4849 146.56 93.423 145.62 93.423C144.673 93.423 144.048 94.3696 143.12 96.1232C142.665 96.9849 131.506 118.375 121.985 137.689C112.501 156.937 105.171 173.854 104.685 174.916C103.708 177.052 102.646 179.522 102.646 181.955C102.646 184.382 103.569 186.488 104.673 189.097C105.207 190.347 113.095 208.102 122.058 226.452C131.809 246.415 142.695 267.077 143.108 267.89C143.933 269.504 144.643 270.596 145.596 270.596C146.554 270.596 147.24 269.534 148.089 267.896C148.532 267.04 159.37 246.409 169.109 226.458C175.117 214.105 180.921 201.654 186.518 189.109C187.732 186.342 188.551 184.516 188.551 182.058C188.557 179.595 187.75 177.616 186.554 174.916V174.916ZM184.795 188.169L184.734 188.314C179.145 200.835 173.351 213.264 167.355 225.596C160.588 239.379 153.642 253.074 146.518 266.676L146.354 266.986C146.014 267.641 145.723 268.114 145.589 268.114C145.456 268.114 145.171 267.653 144.837 266.998L144.321 266.009C137.3 252.628 130.459 239.154 123.799 225.59C117.799 213.274 112.017 200.853 106.457 188.332L106.378 188.15C105.377 185.796 104.582 183.933 104.582 181.961C104.582 179.971 105.504 177.798 106.445 175.735L106.906 174.698C112.256 162.536 117.862 150.488 123.72 138.563C130.615 124.652 137.653 110.812 144.831 97.0456C145.146 96.4509 145.42 95.8926 145.602 95.8926C145.784 95.8926 146.069 96.457 146.39 97.0577C146.481 97.2276 157.477 118.102 167.452 138.557C176.239 156.56 183.909 173.812 184.758 175.717C185.899 178.29 186.591 180.001 186.591 182.064C186.603 184.055 185.923 185.602 184.795 188.169V188.169Z" fill="black"/>
<path d="M288.667 173.21C283.375 162.178 266.925 129.793 252.981 104.514C233.861 69.8536 199.728 12.7963 195.851 7.59598C192.022 2.45639 189.88 2.23187 186.33 1.85565L185.808 1.80104C180.65 1.23065 158.769 0.969727 145.608 0.969727C134.333 0.969727 110.389 1.26099 104.812 1.81925C99.5637 2.34109 98.1377 3.95518 95.1401 7.86904C91.0199 13.2392 56.3171 71.9167 38.2405 104.514C25.17 128.082 4.46605 168.829 2.54249 173.21C0.807043 177.166 0 180.279 0 183.01C0 185.916 0.813111 189.029 2.55463 192.809C6.89324 202.221 19.9758 228.277 38.2405 261.505C57.294 296.16 91.7178 353.435 95.3707 358.423C99.2239 363.684 101.742 363.909 105.231 364.218C110.529 364.691 133.381 365.049 145.608 365.049C158.806 365.049 182.695 364.522 185.99 364.224C189.255 363.927 192.07 363.672 195.851 358.423C199.315 353.611 236.348 291.9 252.981 261.505C268.921 232.373 286.628 197.379 288.667 192.809C290.912 187.785 291.221 185.133 291.221 183.01C291.221 181.335 290.888 177.84 288.667 173.21V173.21ZM286.852 191.996C284.82 196.547 267.15 231.463 251.233 260.553C234.625 290.905 197.689 352.471 194.237 357.264C190.99 361.773 188.927 361.961 185.814 362.246C182.556 362.543 158.775 363.065 145.614 363.065C133.417 363.065 110.656 362.713 105.413 362.246C102.118 361.955 100.304 361.791 96.9848 357.252C93.35 352.288 59.0173 295.152 39.9942 260.546C21.7538 227.367 8.69544 201.359 4.36896 191.978C2.74273 188.465 1.9903 185.619 1.9903 183.01C1.9903 180.564 2.74273 177.706 4.36896 174.011C6.28644 169.642 26.9358 129.011 39.982 105.479C58.0343 72.9362 92.634 14.4103 96.7178 9.07657C99.5819 5.33868 100.607 4.24038 105.007 3.79741C110.516 3.24523 134.37 2.96003 145.608 2.96003C158.727 2.96003 180.505 3.22095 185.59 3.77314L186.118 3.82775C189.431 4.1797 190.942 4.33746 194.255 8.77924C198.108 13.9492 232.149 70.867 251.239 105.473C265.165 130.716 281.591 163.058 286.877 174.071C288.928 178.343 289.231 181.505 289.231 183.004C289.231 184.909 288.94 187.312 286.852 191.996V191.996Z" fill="black"/>
<defs>
<linearGradient id="paint0_linear" x1="145.608" y1="357.138" x2="145.608" y2="6.87504" gradientUnits="userSpaceOnUse">
<stop stop-color="#E5E5E5"/>
<stop offset="0.687" stop-color="white"/>
<stop offset="1" stop-color="#919191"/>
</linearGradient>
<linearGradient id="paint1_linear" x1="138.083" y1="180.857" x2="138.083" y2="7.03284" gradientUnits="userSpaceOnUse">
<stop stop-color="#333333"/>
<stop offset="0.009" stop-color="#292929"/>
<stop offset="0.024" stop-color="#1E1E1E"/>
<stop offset="0.04" stop-color="#1A1A1A"/>
<stop offset="0.122" stop-color="#151515"/>
<stop offset="0.226" stop-color="#050505"/>
<stop offset="0.252"/>
</linearGradient>
<linearGradient id="paint2_linear" x1="172.349" y1="182.058" x2="172.349" y2="81.4386" gradientUnits="userSpaceOnUse">
<stop stop-color="#737373"/>
<stop offset="0.148" stop-color="#6E6E6E"/>
<stop offset="0.332" stop-color="#5E5E5E"/>
<stop offset="0.535" stop-color="#454545"/>
<stop offset="0.749" stop-color="#222222"/>
<stop offset="0.795" stop-color="#1A1A1A"/>
<stop offset="0.921"/>
</linearGradient>
<linearGradient id="paint3_linear" x1="118.817" y1="282.793" x2="118.817" y2="182.119" gradientUnits="userSpaceOnUse">
<stop offset="0.357" stop-color="#BFBFBF"/>
<stop offset="0.474" stop-color="#BABABA"/>
<stop offset="0.61" stop-color="#ACACAC"/>
<stop offset="0.754" stop-color="#959595"/>
<stop offset="0.903" stop-color="#757575"/>
<stop offset="0.963" stop-color="#666666"/>
<stop offset="1" stop-color="#333333"/>
</linearGradient>
<linearGradient id="paint4_linear" x1="158.35" y1="248.66" x2="66.7721" y2="207.35" gradientUnits="userSpaceOnUse">
<stop offset="0.013" stop-color="#F2F2F2" stop-opacity="0.8"/>
<stop offset="0.11" stop-color="#EDEDED" stop-opacity="0"/>
</linearGradient>
<linearGradient id="paint5_linear" x1="153.029" y1="354.802" x2="153.029" y2="180.948" gradientUnits="userSpaceOnUse">
<stop stop-color="white"/>
<stop offset="0.216" stop-color="#F9F9F9"/>
<stop offset="0.512" stop-color="#E7E7E7"/>
<stop offset="0.851" stop-color="#CBCBCB"/>
<stop offset="0.969" stop-color="#BFBFBF"/>
<stop offset="0.991" stop-color="#737373"/>
</linearGradient>
<linearGradient id="paint6_linear" x1="51.1956" y1="361.677" x2="51.1956" y2="182.01" gradientUnits="userSpaceOnUse">
<stop stop-color="#666666"/>
<stop offset="0.185" stop-color="#5E5E5E"/>
<stop offset="0.584" stop-color="#515151"/>
<stop offset="0.97" stop-color="#4D4D4D"/>
<stop offset="0.988" stop-color="#757575"/>
<stop offset="1" stop-color="#8C8C8C"/>
</linearGradient>
<linearGradient id="paint7_linear" x1="111.117" y1="340.947" x2="180.304" y2="380.893" gradientUnits="userSpaceOnUse">
<stop offset="0.019" stop-color="#666666"/>
<stop offset="0.041" stop-color="#4A4A4A"/>
<stop offset="0.063" stop-color="#363636"/>
<stop offset="0.084" stop-color="#292929"/>
<stop offset="0.105" stop-color="#252525"/>
</linearGradient>
<linearGradient id="paint8_linear" x1="186.366" y1="16.2926" x2="103.295" y2="-7.52431" gradientUnits="userSpaceOnUse">
<stop offset="0.01" stop-color="#595959"/>
<stop offset="0.025" stop-color="#757575"/>
<stop offset="0.044" stop-color="#909090"/>
<stop offset="0.061" stop-color="#A0A0A0"/>
<stop offset="0.074" stop-color="#A6A6A6"/>
<stop offset="0.501" stop-color="#BEBEBE"/>
<stop offset="1" stop-color="#BFBFBF"/>
</linearGradient>
<linearGradient id="paint9_linear" x1="-23.2101" y1="121.445" x2="124.934" y2="64.5817" gradientUnits="userSpaceOnUse">
<stop stop-color="#8C8C8C"/>
<stop offset="0.987" stop-color="#737373"/>
<stop offset="1" stop-color="#BFBFBF"/>
</linearGradient>
<linearGradient id="paint10_linear" x1="239.486" y1="362.229" x2="239.486" y2="181.573" gradientUnits="userSpaceOnUse">
<stop offset="0.019" stop-color="#252525"/>
<stop offset="0.216" stop-color="#2E2E2E"/>
<stop offset="0.599" stop-color="#3B3B3B"/>
<stop offset="0.97" stop-color="#3F3F3F"/>
<stop offset="0.986" stop-color="#5C5C5C"/>
<stop offset="1" stop-color="#737373"/>
</linearGradient>
</defs>
</svg>
