<svg width="2198" height="1447" viewBox="0 0 2198 1447" fill="none" xmlns="http://www.w3.org/2000/svg">
<path fill-rule="evenodd" clip-rule="evenodd" d="M236.244 1329.36C231.381 1284.28 109.478 1229.4 109.478 1229.4C77.7797 1209.92 91.1774 1185.58 91.1774 1185.58C110.697 1142.86 213.08 1183.13 213.08 1183.13L232.548 1136.83C178.295 1095.93 109.037 1104.48 109.037 1104.48C23.9033 1114.21 11.1929 1171.73 11.1929 1171.73C-8.22283 1259.84 59.7647 1280.75 59.7647 1280.75C121.747 1309.88 140.424 1321.85 140.424 1321.85C191.226 1354.69 146.39 1376.38 146.39 1376.38C91.1385 1402.47 21.6595 1366.64 21.6595 1366.64L0 1417.43C57.5339 1456.25 146.39 1439.85 146.39 1439.85C259.188 1423.39 236.244 1329.36 236.244 1329.36V1329.36Z" fill="black"/>
<path fill-rule="evenodd" clip-rule="evenodd" d="M418.002 1347.36C414.086 1310.85 315.399 1266.49 315.399 1266.49C289.719 1250.67 300.6 1230.95 300.6 1230.95C316.397 1196.42 399.287 1228.96 399.287 1228.96L415.045 1191.48C371.13 1158.41 315.074 1165.29 315.074 1165.29C246.179 1173.17 235.894 1219.76 235.894 1219.76C220.162 1291.08 275.166 1308.03 275.166 1308.03C325.346 1331.59 340.469 1341.27 340.469 1341.27C381.557 1367.87 345.294 1385.37 345.294 1385.37C300.587 1406.56 244.324 1377.53 244.324 1377.53L226.828 1418.66C273.39 1450.1 345.294 1436.79 345.294 1436.79C436.588 1423.47 418.002 1347.36 418.002 1347.36V1347.36Z" fill="black"/>
<path fill-rule="evenodd" clip-rule="evenodd" d="M500.529 1171.6L403.126 1433.06L459.233 1434.07L484.615 1376.94H602.134L627.542 1428.81H681.496L579.904 1171.6H500.529V1171.6ZM503.668 1330.36L540.722 1239.31L580.942 1330.36H503.668ZM862.502 1344.13L753.504 1173.73H681.496V1428.81L734.439 1429.85V1262.63L850.855 1437.28H917.546V1174.74H862.502V1344.13V1344.13ZM1154.61 1289.08H1065.7V1329.31H1126.06V1390.68C1084.77 1406.56 1041.39 1389.65 1041.39 1389.65C955.638 1332.53 1002.21 1261.57 1002.21 1261.57C1055.16 1178.99 1181.1 1229.83 1181.1 1229.83V1182.19C1027.59 1132.43 961.967 1216.05 961.967 1216.05C875.213 1335.65 983.134 1414.02 983.134 1414.02C1089.01 1479.63 1190.64 1422.45 1190.64 1422.45V1328.23C1188.51 1284.89 1154.61 1289.08 1154.61 1289.08V1289.08ZM2161.41 1289.08H2072.52V1329.31H2132.8V1390.68C2091.5 1406.56 2048.12 1389.65 2048.12 1389.65C1962.38 1332.53 2008.95 1261.57 2008.95 1261.57C2061.89 1178.99 2187.84 1229.83 2187.84 1229.83V1182.19C2034.36 1132.43 1968.75 1216.05 1968.75 1216.05C1881.94 1335.65 1989.87 1414.02 1989.87 1414.02C2095.76 1479.63 2197.36 1422.45 2197.36 1422.45V1328.23C2195.29 1284.89 2161.41 1289.08 2161.41 1289.08V1289.08Z" fill="black"/>
<path fill-rule="evenodd" clip-rule="evenodd" d="M1397.95 1115.66L1316.44 1251.16L1234.96 1118.89H1164.07L1285.75 1316.81L1218.02 1443.81H1282.56L1469.95 1115.66H1397.95V1115.66ZM1535.55 1168.17C1458.74 1168.17 1396.47 1230.47 1396.47 1307.29C1396.47 1384.11 1458.74 1446.39 1535.55 1446.39C1612.38 1446.39 1674.71 1384.11 1674.71 1307.29C1674.71 1230.47 1612.38 1168.17 1535.55 1168.17ZM1535.55 1391.95C1488.79 1391.95 1450.92 1354.04 1450.92 1307.28C1450.92 1284.83 1459.84 1263.3 1475.72 1247.42C1491.59 1231.54 1513.12 1222.63 1535.57 1222.63C1558.03 1222.63 1579.56 1231.54 1595.43 1247.42C1611.31 1263.3 1620.23 1284.83 1620.23 1307.28C1620.22 1329.74 1611.3 1351.27 1595.42 1367.15C1579.54 1383.03 1558.01 1391.95 1535.55 1391.95V1391.95ZM1876.38 1341.14L1767.36 1172.85H1693.26V1434.25L1749.39 1433.24V1263.88L1864.73 1436.37H1932.45V1171.78H1876.38V1341.14ZM1812.25 307.375C1771.72 157.717 1578.05 82.2847 1578.05 82.2847C1526.38 63.3748 1547.01 93.0755 1547.01 93.0755C1547.01 93.0755 1769.86 195.653 1769.86 338.438C1769.86 515.28 1527.03 568.171 1527.03 568.171C1747.89 497.901 1748.53 347.944 1748.53 347.944C1744.65 198.014 1547.01 93.0755 1547.01 93.0755C1470.82 49.8473 1429.48 39.0305 1429.48 39.0305C1330.03 5.71119 1362.3 44.4389 1362.3 44.4389C1362.3 44.4389 1662.33 138.976 1662.33 347.529C1662.33 560.545 1244.13 628.973 1244.13 628.973C1637.37 556.005 1637.45 349.293 1637.45 349.293C1637.45 163.099 1362.3 44.4389 1362.3 44.4389C1320.98 21.9364 1250.89 3.80464 1250.89 3.80464C1185.96 -10.0341 1222.8 18.3308 1222.8 18.3308C1486.32 172.334 1486.32 342.549 1486.32 342.549C1486.32 531.7 1312.9 578.962 1312.9 578.962C1262.51 598.559 1165.02 614.24 1165.02 614.24C1149.23 618.909 1138.19 629.764 1138.19 642.488C1138.19 647.624 1139.44 652.708 1143.19 656.742C1152.71 666.91 1184.76 690.748 1184.76 690.748C1196.23 701.552 1202.94 714.924 1202.94 729.398C1202.94 764.909 1162.11 793.728 1111.39 794.39H1107.65C1056.94 793.728 1016.07 764.922 1016.07 729.398C1016.07 714.924 1022.82 701.552 1034.27 690.748C1034.27 690.748 1066.3 666.91 1075.82 656.742C1079.57 652.708 1080.85 647.637 1080.85 642.488C1080.85 629.764 1069.79 618.909 1054.02 614.24C1054.02 614.24 956.514 598.572 906.126 578.962C906.126 578.962 732.707 531.713 732.707 342.549C732.707 342.549 732.707 172.321 996.227 18.3308C996.227 18.3308 1033.05 -10.0341 968.135 3.80464C968.135 3.80464 898.046 21.9364 856.724 44.4389C856.724 44.4389 581.584 163.086 581.584 349.293C581.584 349.293 581.636 556.005 974.918 628.973C974.918 628.973 556.708 560.558 556.708 347.529C556.708 138.976 856.724 44.4389 856.724 44.4389C856.724 44.4389 888.993 5.71119 789.541 39.0305C789.541 39.0305 748.206 49.8343 671.996 93.0755C671.996 93.0755 474.35 198.014 470.485 347.944C470.485 347.944 471.12 497.901 692.008 568.171C692.008 568.171 449.162 515.267 449.162 338.438C449.162 195.653 671.996 93.0755 671.996 93.0755C671.996 93.0755 692.657 63.3618 640.998 82.2847C640.998 82.2847 447.295 157.73 406.79 307.375C406.79 307.375 394.508 363.755 412.484 404.934C434.273 455.36 491.094 538.885 635.81 585.693C635.81 585.693 701.697 612.748 965.229 665.431L980.754 668.972C980.754 668.972 992.09 673.94 983.971 682.889L947.668 714.094C947.668 714.094 894.427 755.052 970.417 789.526C970.417 789.526 1016.78 805.323 1049.47 840.316C1049.47 840.316 1070.49 860.315 1106.09 861.314V861.456H1108.47C1108.57 861.456 1108.66 861.495 1108.74 861.495V861.456H1110.27V861.495L1110.54 861.456H1112.18V861.405C1148.25 860.626 1169.53 840.316 1169.53 840.316C1202.23 805.323 1248.57 789.526 1248.57 789.526C1324.58 755.052 1271.32 714.094 1271.32 714.094L1235.04 682.889C1226.93 673.94 1238.26 668.972 1238.26 668.972L1253.75 665.431C1517.27 612.748 1583.19 585.693 1583.19 585.693C1727.9 538.885 1784.72 455.373 1806.54 404.934C1824.53 363.755 1812.25 307.375 1812.25 307.375V307.375Z" fill="black"/>
</svg>
