<svg width="500" height="138" viewBox="0 0 500 138" fill="none" xmlns="http://www.w3.org/2000/svg">
<path fill-rule="evenodd" clip-rule="evenodd" d="M0 0H137.502V137.502H0V0Z" fill="black"/>
<path fill-rule="evenodd" clip-rule="evenodd" d="M461.896 73.0396L469.61 52.8112L477.312 73.0396H461.895H461.896ZM477.618 41.3237H461.597L439.21 96.1736H453.088L458.187 82.7884H481.026L486.127 96.1736H500.001L477.618 41.3237ZM364.624 86.6372C355.583 86.6372 348.267 78.4816 348.267 68.4168C348.267 58.351 355.583 50.1896 364.624 50.1896C373.65 50.1896 380.977 58.351 380.977 68.4168C380.976 78.4816 373.65 86.6372 364.624 86.6372ZM364.624 39.4431C348.62 39.4431 335.646 52.4158 335.646 68.4157C335.646 84.4157 348.619 97.3815 364.624 97.3815C380.617 97.3815 393.598 84.4145 393.598 68.4157C393.598 52.4158 380.617 39.4431 364.624 39.4431ZM250.296 86.6372C241.27 86.6372 233.949 78.4816 233.949 68.4168C233.949 58.351 241.271 50.1896 250.296 50.1896C259.332 50.1896 266.654 58.351 266.654 68.4168C266.654 78.4816 259.332 86.6372 250.296 86.6372ZM250.296 39.4431C234.296 39.4431 221.335 52.4158 221.335 68.4157C221.335 84.4157 234.296 97.3815 250.296 97.3815C266.296 97.3815 279.268 84.4145 279.268 68.4157C279.27 52.4158 266.295 39.4431 250.296 39.4431ZM321.908 41.3237L307.712 63.5157L293.505 41.3237H279.621L301.597 75.7202V96.1736H313.818V75.7259L335.792 41.3249H321.908V41.3237ZM442.13 41.3237H395.236V51.8419H412.604V96.1736H424.837V51.8419H442.129V41.3237H442.13ZM171.879 51.8419H189.253V96.1736H201.48V51.8419H218.779V41.3237H171.879V51.8419Z" fill="black"/>
<path fill-rule="evenodd" clip-rule="evenodd" d="M68.7509 37.5363C42.7885 37.5363 22.917 50.9248 22.917 68.7509C22.917 85.9906 42.2817 99.9656 68.7509 99.9656C95.2202 99.9656 114.585 85.9906 114.585 68.7509C114.585 50.9237 94.7134 37.5363 68.7509 37.5363ZM97.3293 50.9248C98.2838 54.7726 93.802 59.5816 79.3793 61.1555C78.4191 51.3555 75.5134 43.076 70.6952 41.3215C77.1805 41.5044 83.3282 42.601 88.6884 44.5453C93.7009 46.4374 96.8156 48.8499 97.3304 50.9248H97.3293ZM75.9668 68.6009C75.9668 81.0179 72.2373 86.1656 68.7509 86.1656C65.2646 86.1656 61.5351 81.0191 61.5351 68.6009L61.5362 68.4714C63.8532 68.668 66.2657 68.7702 68.7521 68.7702C71.2384 68.7702 73.6509 68.668 75.968 68.4714L75.9691 68.6009H75.9668ZM68.7487 61.6805C66.3169 61.6805 64.0669 61.6112 61.9873 61.4828C63.0828 53.3623 65.9919 48.6419 68.7509 48.6419C71.5089 48.6419 74.4191 53.3623 75.5146 61.4828C73.4339 61.6112 71.1839 61.6805 68.7498 61.6805H68.7487ZM40.1681 50.9248C40.6806 48.8601 43.7658 46.4612 48.7328 44.5737C54.1112 42.6112 60.2885 41.5044 66.8066 41.3215C61.9885 43.0749 59.0828 51.3544 58.1226 61.1555C43.6965 59.5839 39.2135 54.7737 40.1692 50.9248H40.1681ZM29.6772 67.6271C29.6772 62.3703 31.4374 57.8271 34.501 54.0657C34.8976 61.0362 44.3249 66.2339 57.7692 68.0577L57.7669 68.5998C57.7669 85.4168 62.0782 94.3315 66.8578 96.1724C46.3351 95.4361 29.6772 82.7952 29.6772 67.6259V67.6271ZM70.5623 96.177C75.3736 94.2554 79.7361 84.6906 79.7361 68.6021L79.7339 68.06C93.177 66.235 102.605 61.0373 103.002 54.068C106.066 57.8294 107.826 62.3725 107.826 67.6293C107.826 82.8179 91.1225 95.4713 70.5623 96.1781V96.177Z" fill="white"/>
</svg>
